<?xml version="1.0" standalone="no"?>
<!DOCTYPE svg PUBLIC "-//W3C//DTD SVG 20010904//EN"
 "http://www.w3.org/TR/2001/REC-SVG-20010904/DTD/svg10.dtd">
<svg version="1.0" xmlns="http://www.w3.org/2000/svg"
 width="202.000000pt" height="202.000000pt" viewBox="0 0 202.000000 202.000000"
 preserveAspectRatio="xMidYMid meet">
<metadata>
Created by potrace 1.11, written by Peter Selinger 2001-2013
</metadata>
<g transform="translate(0.000000,202.000000) scale(0.100000,-0.100000)"
fill="#000000" stroke="none">
<path d="M860 1910 c-50 -23 -157 -132 -167 -169 -3 -13 4 -62 16 -109 14 -57
17 -90 11 -96 -27 -27 0 -125 40 -146 11 -6 20 -19 20 -30 0 -11 10 -45 21
-77 17 -45 38 -74 95 -130 48 -48 71 -78 68 -88 -4 -8 -10 -15 -15 -15 -5 0
-9 -5 -9 -11 0 -17 -33 -54 -50 -56 -8 -1 -66 -19 -129 -41 -95 -33 -116 -44
-133 -71 -11 -17 -25 -31 -30 -31 -11 0 -6 76 8 133 5 21 3 27 -10 27 -18 0
-56 -56 -56 -82 0 -15 -9 -18 -53 -18 -67 0 -86 -18 -90 -86 -2 -27 -7 -55
-11 -62 -4 -7 -3 -12 3 -12 17 0 17 -44 0 -81 -10 -20 -37 -90 -59 -155 -62
-175 -58 -266 11 -294 38 -16 91 -5 129 27 25 21 104 133 197 279 10 16 12 4
12 -66 1 -85 -14 -328 -25 -407 l-5 -43 145 0 c110 0 146 3 147 13 4 32 7 70
13 162 4 55 12 104 17 109 5 6 8 21 8 35 -1 25 -2 24 -9 -4 -5 -17 -8 54 -9
170 -1 208 -4 277 -15 312 -4 14 -2 23 9 27 10 3 15 -1 15 -12 0 -15 2 -15 10
-2 13 20 12 31 -2 27 -6 -1 -15 9 -19 23 -9 25 -9 25 -5 -2 2 -16 0 -28 -4
-28 -7 0 -20 34 -20 53 0 14 29 7 42 -10 7 -10 20 -19 28 -21 22 -5 26 -16 21
-69 -5 -47 -5 -47 -11 -13 l-6 35 -5 -38 c-3 -20 0 -42 6 -48 11 -11 14 -140
3 -133 -4 2 -9 0 -13 -6 -3 -5 1 -10 9 -10 10 0 13 -8 11 -22 -2 -13 -6 -108
-9 -213 -4 -112 -10 -191 -16 -193 -6 -2 -10 -10 -10 -18 0 -9 3 -13 8 -10 4
2 7 -17 7 -42 -1 -73 -3 -72 94 -72 l87 0 -8 81 c-8 72 -7 84 9 102 16 20 16
20 1 8 -11 -8 -18 -9 -18 -3 0 6 -3 17 -6 26 -3 9 -1 16 6 16 6 0 8 -6 5 -13
-4 -6 1 -3 9 7 25 31 37 8 43 -85 6 -74 4 -82 -11 -76 -13 5 -15 2 -10 -21 4
-21 3 -24 -5 -12 -13 19 -14 0 -1 -20 5 -8 10 -10 10 -4 0 6 7 11 15 11 8 0
15 -4 15 -9 0 -5 89 -7 197 -6 l198 3 24 65 c22 62 23 70 12 175 -13 126 -40
260 -78 390 -28 97 -76 222 -91 237 -11 11 -275 88 -281 82 -8 -7 -61 85 -67
114 -4 23 2 32 39 62 75 59 127 150 127 220 0 16 7 30 15 34 41 15 72 125 43
154 -9 9 -8 28 2 80 8 44 10 84 5 108 -5 22 -7 57 -6 80 l3 41 -43 7 c-23 4
-88 21 -143 37 -137 42 -262 49 -326 19z m100 -430 c0 -20 -19 -40 -39 -40
-12 0 -11 3 3 13 20 15 18 64 -2 59 -8 -1 -10 2 -7 8 9 15 45 -17 45 -40z
m225 40 c4 -6 1 -9 -7 -8 -20 5 -22 -44 -2 -59 16 -12 16 -13 1 -13 -10 0 -23
11 -29 25 -9 21 -8 28 7 45 21 23 22 23 30 10z m-321 -24 c-3 -15 1 -29 11
-40 9 -9 13 -16 8 -16 -25 0 -45 55 -26 73 11 12 14 8 7 -17z m386 -10 c0 -22
-17 -46 -33 -46 -5 0 -1 7 8 16 11 11 14 25 10 41 -4 16 -2 22 5 18 5 -3 10
-16 10 -29z m-110 -245 c0 -17 -136 -29 -174 -15 -39 15 -9 24 79 24 52 0 95
-4 95 -9z m32 -390 c-3 -9 -10 -19 -16 -23 -7 -5 -7 -8 2 -8 15 0 32 39 25 58
-3 6 -1 12 5 12 6 0 8 -26 6 -67 -5 -87 -4 -256 3 -401 4 -91 2 -112 -9 -110
-7 2 -17 8 -21 13 -5 6 -7 4 -4 -5 2 -8 9 -16 15 -16 7 -1 17 -2 23 -3 6 0 9
-11 7 -23 -2 -13 -6 -21 -9 -18 -3 3 -13 -1 -21 -7 -17 -15 -28 -7 -28 20 0
15 3 17 13 8 8 -6 17 -8 20 -5 4 4 -4 15 -17 25 -24 19 -35 83 -16 94 6 3 10
12 10 18 0 7 -4 6 -11 -3 -9 -12 -10 -12 -5 4 4 10 1 24 -5 32 -7 9 -7 18 0
33 14 24 14 34 2 26 -6 -3 -8 12 -5 37 3 31 2 39 -6 28 -10 -15 -13 19 -14
158 0 28 -4 52 -8 52 -5 0 -8 9 -8 20 0 11 6 20 13 20 8 0 7 4 -3 10 -13 8
-12 13 8 32 19 20 24 21 32 8 8 -12 10 -12 10 5 0 16 2 17 9 6 5 -8 7 -21 3
-30z m318 -515 c7 -50 10 -107 8 -126 -3 -30 -5 -26 -15 30 -16 85 -27 256
-14 216 6 -15 15 -69 21 -120z m-268 -308 c-7 -7 -12 -8 -12 -2 0 14 12 26 19
19 2 -3 -1 -11 -7 -17z"/>
<path d="M1124 857 c-8 -9 -7 -16 1 -24 10 -9 13 -6 13 13 0 13 -1 24 -2 24 0
-1 -6 -6 -12 -13z"/>
<path d="M1131 724 c0 -11 3 -14 6 -6 3 7 2 16 -1 19 -3 4 -6 -2 -5 -13z"/>
<path d="M1153 660 c0 -25 2 -35 4 -22 2 12 2 32 0 45 -2 12 -4 2 -4 -23z"/>
<path d="M1158 573 c7 -3 16 -2 19 1 4 3 -2 6 -13 5 -11 0 -14 -3 -6 -6z"/>
<path d="M1146 535 c4 -8 8 -15 10 -15 2 0 4 7 4 15 0 8 -4 15 -10 15 -5 0 -7
-7 -4 -15z"/>
<path d="M1150 470 c0 -5 4 -10 9 -10 6 0 13 5 16 10 3 6 -1 10 -9 10 -9 0
-16 -4 -16 -10z"/>
<path d="M1160 361 c0 -25 6 -27 13 -6 4 8 2 17 -3 20 -6 4 -10 -3 -10 -14z"/>
<path d="M995 660 c-4 -23 -5 -43 -2 -46 2 -3 7 14 11 37 4 23 5 44 2 46 -2 2
-7 -14 -11 -37z"/>
<path d="M980 532 c0 -17 4 -34 10 -37 6 -4 7 6 3 27 -8 44 -13 48 -13 10z"/>
<path d="M970 443 c0 -11 7 -20 15 -20 12 0 12 3 3 16 -7 9 -14 18 -15 20 -2
2 -3 -5 -3 -16z"/>
<path d="M976 185 c-9 -26 -7 -32 5 -12 6 10 9 21 6 23 -2 3 -7 -2 -11 -11z"/>
<path d="M972 80 c0 -14 2 -19 5 -12 2 6 2 18 0 25 -3 6 -5 1 -5 -13z"/>
</g>
</svg>
